Coordinates
version=1
nRows=17
nColumns=33
inDegrees=yes

Units are S.I. units (second, meters, Newtons, ...)
Angles are in degrees.

endheader
time	ground_thorax_rot_x	ground_thorax_rot_y	ground_thorax_rot_z	ground_thorax_tx	ground_thorax_ty	ground_thorax_tz	clav_prot_r	clav_elev_r	scapula_abduction_r	scapula_elevation_r	scapula_upward_rot_r	scapula_winging_r	shoulder_elv_r	plane_of_elev_r	axial_rot_r	elbow_flexion_r	pro_sup_r	wrist_flex_r	wrist_dev_r	clav_prot_l	clav_elev_l	scapula_abduction_l	scapula_elevation_l	scapula_upward_rot_l	scapula_winging_l	shoulder_elv_l	plane_of_elev_l	axial_rot_l	elbow_flexion_l	pro_sup_l	wrist_flex_l	wrist_dev_l	
7.5100	23.446951	33.191145	53.478295	88.513693	780.835025	-39.415633	13.064213	36.341036	28.116625	45.000000	-45.000000	-1881.928785	-2449.489572	21.438561	-164.365587	-358.949083	170.865095	12.295411	11.766592	-13.846094	-45.000000	-35.894213	45.000000	-45.000000	-2779.226480	75.030824	25.272411	28.622061	2150.367184	48.071101	10.846410	-16.256700	
7.5200	23.421388	33.184543	53.484677	88.938639	780.576965	-39.422378	13.173345	36.350225	28.090835	45.000000	-45.000000	-1881.898517	-2449.431839	21.387750	-164.104891	-358.952433	171.038879	12.358076	11.700031	-13.798365	-45.000000	-35.848468	45.000000	-45.000000	-2779.204065	75.024382	25.261605	28.465977	2150.443236	48.105590	10.812066	-16.250404	
7.5300	23.383416	33.182050	53.493029	89.319621	780.317942	-39.434098	13.359602	36.391712	28.068042	45.000000	-45.000000	-1881.827692	-2449.369896	21.261380	-163.876746	-358.995622	171.215175	12.444683	11.591560	-13.707185	-45.000000	-35.797643	45.000000	-45.000000	-2779.201693	75.037467	25.257061	28.291327	2150.525128	48.149052	10.823034	-16.183720	
7.5400	23.362704	33.159784	53.472217	89.607382	780.060285	-39.456942	13.438269	36.412197	28.045611	45.000000	-45.000000	-1881.788175	-2449.330159	21.193779	-163.664671	-359.008579	171.413726	12.508621	11.537474	-13.665834	-45.000000	-35.768902	45.000000	-45.000000	-2779.188910	75.053488	25.249673	28.163430	2150.585363	48.189308	10.812840	-16.156246	
7.5500	23.349237	33.128419	53.435655	89.794135	779.800097	-39.490777	13.472036	36.418008	28.024738	45.000000	-45.000000	-1881.780663	-2449.313036	21.162401	-163.472349	-359.007090	171.624264	12.559831	11.515175	-13.648385	-45.000000	-35.755414	45.000000	-45.000000	-2779.167032	75.073159	25.246668	28.058759	2150.622686	48.223254	10.789483	-16.155938	
7.5600	23.348722	33.086892	53.379310	89.865868	779.534011	-39.536108	13.478738	36.419701	27.998971	45.000000	-45.000000	-1881.769580	-2449.290434	21.135246	-163.295118	-359.003604	171.839492	12.603487	11.511665	-13.638253	-45.000000	-35.748809	45.000000	-45.000000	-2779.147614	75.095897	25.237936	27.964441	2150.657796	48.250462	10.779172	-16.149957	
7.5700	23.352079	33.042826	53.319918	89.820929	779.257383	-39.591749	13.463950	36.405708	27.974482	45.000000	-45.000000	-1881.799545	-2449.290563	21.146495	-163.128704	-358.978184	172.048108	12.631637	11.526884	-13.644081	-45.000000	-35.751040	45.000000	-45.000000	-2779.111409	75.117864	25.235025	27.877057	2150.668691	48.261343	10.750261	-16.176601	
7.5800	23.361759	32.995439	53.253027	89.663352	778.965919	-39.655987	13.460797	36.391644	27.943204	45.000000	-45.000000	-1881.812178	-2449.276085	21.136988	-162.965148	-358.960241	172.240061	12.656343	11.540038	-13.637766	-45.000000	-35.750422	45.000000	-45.000000	-2779.079560	75.141181	25.223725	27.773913	2150.688537	48.258814	10.746667	-16.181906	
7.5900	23.372626	32.944808	53.184928	89.398494	778.656773	-39.727547	13.446128	36.376215	27.909982	45.000000	-45.000000	-1881.844646	-2449.275203	21.145325	-162.800245	-358.930074	172.409426	12.670402	11.559933	-13.638907	-45.000000	-35.752061	45.000000	-45.000000	-2779.036325	75.160742	25.214687	27.660272	2150.696759	48.237854	10.727927	-16.201128	
7.6000	23.391452	32.886451	53.102911	89.032430	778.328685	-39.805735	13.436382	36.370786	27.864222	45.000000	-45.000000	-1881.837575	-2449.249281	21.118732	-162.630959	-358.919255	172.554951	12.685174	11.571671	-13.627088	-45.000000	-35.743854	45.000000	-45.000000	-2779.006343	75.182168	25.195078	27.522942	2150.723351	48.208757	10.743158	-16.180771	
7.6100	23.411022	32.825387	53.016004	88.571928	777.981639	-39.890419	13.420692	36.370961	27.813169	45.000000	-45.000000	-1881.849135	-2449.236181	21.108342	-162.461393	-358.904678	172.677433	12.694021	11.588012	-13.621222	-45.000000	-35.738059	45.000000	-45.000000	-2778.968131	75.199951	25.181038	27.371205	2150.738076	48.169633	10.736995	-16.171832	
7.6200	23.438089	32.756611	52.911350	88.023616	777.616665	-39.981846	13.406682	36.365738	27.744696	45.000000	-45.000000	-1881.832707	-2449.200760	21.078407	-162.285080	-358.914317	172.782565	12.702523	11.598804	-13.607065	-45.000000	-35.721502	45.000000	-45.000000	-2778.941843	75.224478	25.162595	27.198999	2150.769446	48.131523	10.767098	-16.135982	
7.6300	23.465101	32.686929	52.807141	87.393634	777.235412	-40.080395	13.392306	36.367930	27.673070	45.000000	-45.000000	-1881.837715	-2449.172768	21.065656	-162.110295	-358.920964	172.873368	12.709342	11.613371	-13.595852	-45.000000	-35.711888	45.000000	-45.000000	-2778.905282	75.242902	25.146323	27.015238	2150.788400	48.092959	10.768591	-16.114491	
7.6400	23.498696	32.612753	52.697239	86.687605	776.839829	-40.186320	13.375257	36.362102	27.600095	45.000000	-45.000000	-1881.830880	-2449.130593	21.038163	-161.932697	-358.939873	172.957813	12.715296	11.619988	-13.581482	-45.000000	-35.700532	45.000000	-45.000000	-2778.873265	75.263353	25.117990	26.818166	2150.817090	48.062829	10.794783	-16.079852	
7.6500	23.526483	32.543409	52.602099	85.910386	776.432002	-40.299578	13.360422	36.366565	27.536775	45.000000	-45.000000	-1881.862695	-2449.108425	21.032068	-161.763247	-358.940787	173.039542	12.720699	11.632035	-13.573258	-45.000000	-35.706763	45.000000	-45.000000	-2778.822118	75.275050	25.087564	26.617528	2150.824672	48.036551	10.769989	-16.075444	
7.6600	23.551494	32.473814	52.511074	85.066131	776.014084	-40.419794	13.343772	36.359466	27.478244	45.000000	-45.000000	-1881.888647	-2449.085704	21.007313	-161.595522	-358.947946	173.127172	12.726485	11.633274	-13.561969	-45.000000	-35.714249	45.000000	-45.000000	-2778.772443	75.292405	25.046108	26.409537	2150.840972	48.022196	10.767953	-16.063513	
7.6700	23.576245	32.406421	52.423733	84.158100	775.588370	-40.546312	13.326459	36.366658	27.426412	45.000000	-45.000000	-1881.932186	-2449.069880	20.988962	-161.433389	-358.948297	173.223824	12.735955	11.640911	-13.551365	-45.000000	-35.733748	45.000000	-45.000000	-2778.713267	75.299380	25.002471	26.195013	2150.847247	48.016624	10.731083	-16.064335	
